<?xml version="1.0" encoding="UTF-8"?>
<!DOCTYPE svg PUBLIC "-//W3C//DTD SVG 1.1//EN" "http://www.w3.org/Graphics/SVG/1.1/DTD/svg11.dtd">
<!-- Creator: CorelDRAW 2021 (64-Bit) -->
<svg xmlns="http://www.w3.org/2000/svg" xml:space="preserve" width="60mm" height="59.9916mm" version="1.1" style="shape-rendering:geometricPrecision; text-rendering:geometricPrecision; image-rendering:optimizeQuality; fill-rule:evenodd; clip-rule:evenodd"
viewBox="0 0 6000 5999.16"
 xmlns:xlink="http://www.w3.org/1999/xlink"
 xmlns:xodm="http://www.corel.com/coreldraw/odm/2003">
 <defs>
  <style type="text/css">
   <![CDATA[
    .fil0 {fill:#D13634}
   ]]>
  </style>
 </defs>
 <g id="图层_x0020_1">
  <metadata id="CorelCorpID_0Corel-Layer"/>
  <path class="fil0" d="M3434.07 3186.11l2465.57 0c29.33,0 54.58,11.19 74.28,32.92 19.69,21.72 28.4,47.93 25.55,77.11 -139.32,1426.44 -1272.91,2561.26 -2698.81,2702.51 -59.35,5.88 -110.16,-40.19 -110.16,-99.81l0 -2470.14c0,-41.4 -23.61,-76.75 -61.85,-92.61 -38.24,-15.88 -79.94,-7.61 -109.25,21.63l-180.45 180.02c-19.58,19.53 -29.46,43.32 -29.46,70.98l0 2290.13c0,59.63 -50.81,105.68 -110.16,99.8 -676.9,-67.05 -1287.87,-358.07 -1757.9,-797.84 -20.59,-19.28 -31.27,-43.37 -31.74,-71.57 -0.46,-28.2 9.41,-52.64 29.36,-72.58 432.47,-432.36 864.94,-865 1297.4,-1297.51 29.28,-29.29 37.58,-71 21.73,-109.27 -15.85,-38.27 -51.22,-61.9 -92.64,-61.9l-299.58 -0.01c-27.61,0 -51.38,9.85 -70.9,29.37 -372.36,372.38 -744.11,744.78 -1116.17,1116.94 -21.73,21.73 -49.15,31.7 -79.77,28.98 -30.6,-2.7 -55.85,-17.33 -73.42,-42.54 -286.88,-411.66 -473.76,-898.25 -525.17,-1424.59 -2.85,-29.19 5.84,-55.39 25.54,-77.11 19.7,-21.73 44.94,-32.91 74.27,-32.91l2607.65 0c54.99,0 99.9,-44.6 100.27,-99.59l1.23 -181.16c0,-55.23 -45.04,-100.27 -100.27,-100.27 -869.35,0 -1738.7,0 -2608.04,0 -29.38,0 -54.67,-11.22 -74.38,-33.02 -19.7,-21.78 -28.36,-48.06 -25.43,-77.28 142.9,-1422.54 1274.83,-2553.26 2697.96,-2694.24 29.21,-2.9 55.44,5.79 77.2,25.49 21.76,19.7 32.96,44.96 32.96,74.32l0 2604.46c0,55.23 45.04,100.27 100.27,100.27l238.67 0c27.56,0 51.27,-9.8 70.79,-29.25 339.33,-338.21 677.87,-677.34 1016.72,-1016.18 29.29,-29.29 37.58,-71.01 21.72,-109.27 -15.85,-38.28 -51.21,-61.9 -92.64,-61.9 -529.68,0 -759.11,0 -874.88,0 -55.22,-0.01 -100.26,-45.06 -100.26,-100.28l0 -201.34c0,-55.23 45.04,-100.27 100.27,-100.27l1334.42 0c42.83,0 79.31,-25.45 94.11,-65.64 14.79,-40.19 3.51,-83.21 -29.1,-110.98 -393.31,-334.88 -883.04,-554.53 -1409.55,-611.26 -51.16,-5.51 -89.53,-48.25 -89.53,-99.7l0 -198.65c0,-29.36 11.21,-54.63 32.97,-74.33 21.76,-19.7 48,-28.39 77.2,-25.49 1423.13,140.97 2555.08,1271.69 2697.97,2694.24 2.93,29.23 -5.73,55.49 -25.43,77.28 -19.71,21.8 -45,33.02 -74.38,33.02l-2283.75 0c-29.26,0 -52.65,10.64 -72.92,31.46l-178.87 178.26c-29.36,29.26 -37.71,71 -21.89,109.32 15.83,38.3 51.22,61.98 92.67,61.98zm785.92 -782.91l1193.88 0c32.56,0 60.57,-13.98 80.14,-40 19.57,-26.01 25.23,-56.81 16.21,-88.08 -87.67,-303.74 -229.26,-583.47 -412.44,-829.44 -18.02,-24.2 -43.05,-37.93 -73.15,-40.12 -30.09,-2.19 -56.85,7.77 -78.18,29.11l-797.36 797.35c-29.29,29.29 -37.58,71 -21.74,109.28 15.85,38.26 51.22,61.9 92.64,61.9zm-1983.56 1741.5l-802.44 802.44c-21.36,21.35 -31.32,48.16 -29.1,78.28 2.21,30.11 15.99,55.16 40.24,73.16 248.07,184.1 529.96,325.26 834.61,412.47 31.25,8.95 62,3.24 87.96,-16.33 25.96,-19.58 39.91,-47.55 39.91,-80.07l0 -1199.05c0,-41.42 -23.64,-76.79 -61.9,-92.64 -38.28,-15.84 -79.99,-7.55 -109.28,21.74zm-1409.58 55.33l440.87 -440.88c29.29,-29.29 37.59,-71.01 21.74,-109.28 -15.85,-38.26 -51.22,-61.9 -92.64,-61.9l-613.03 0c-32.49,0 -60.44,13.92 -80.02,39.85 -19.57,25.92 -25.32,56.62 -16.43,87.86 45.4,159.64 105.63,313.02 179.08,458.61 14.97,29.65 40.86,48.58 73.65,53.85 32.78,5.25 63.3,-4.63 86.78,-28.11zm1480.48 -2611.54l-1450.24 0c-35.88,0 -66.73,17.25 -85.49,47.86 -120.9,197.18 -216.43,411.64 -281.87,638.82 -9,31.27 -3.33,62.05 16.25,88.05 19.56,26.01 47.57,39.98 80.12,39.98l1721.23 0c55.23,0 100.28,-45.05 100.28,-100.28l0 -614.16c0,-55.23 -45.05,-100.27 -100.28,-100.27zm-934.74 -401.89l934.74 0c55.23,0 100.28,-45.04 100.28,-100.27l0 -501.8c0,-32.52 -13.95,-60.49 -39.91,-80.08 -25.96,-19.57 -56.71,-25.27 -87.96,-16.33 -362.46,103.73 -692.7,283.88 -972.17,521.86 -32.61,27.77 -43.88,70.78 -29.09,110.98 14.79,40.19 51.28,65.64 94.11,65.64zm2219.79 2501.65l0 1726.41c0,66.98 63.48,114.83 127.87,96.4 864.95,-247.55 1546.27,-929.98 1792.4,-1795.38 8.89,-31.24 3.14,-61.93 -16.44,-87.86 -19.58,-25.93 -47.53,-39.85 -80.02,-39.85l-1723.53 0c-55.23,0 -100.28,45.05 -100.28,100.28zm-541.62 -739.31c-33.83,33.75 -67.68,67.53 -101.51,101.29 -23.46,23.41 -30.14,56.8 -17.47,87.45 12.68,30.63 40.99,49.55 74.14,49.55 33.83,0 67.67,0 101.5,0 44.18,0 80.22,-36.04 80.22,-80.22 0,-33.76 0,-67.52 0,-101.28 0,-33.12 -18.88,-61.41 -49.48,-74.11 -30.6,-12.68 -63.96,-6.07 -87.4,17.32z"/>
 </g>
</svg>
